<svg xmlns="http://www.w3.org/2000/svg" width="225" height="96" viewBox="0 0 225 96" role="img" aria-label="Sift">
  <title>Sift</title>
  <defs>
    <linearGradient id="g" x1="0" y1="0" x2="1" y2="1">
      <stop offset="0%" stop-color="#00FFCC"/>
      <stop offset="55%" stop-color="#1FB6FF"/>
      <stop offset="100%" stop-color="#8A2BE2"/>
    </linearGradient>
    <filter id="glow" x="-30%" y="-30%" width="160%" height="160%">
      <feGaussianBlur stdDeviation="3" result="b"/>
      <feMerge><feMergeNode in="b"/><feMergeNode in="SourceGraphic"/></feMerge>
    </filter>
  </defs>
  <g fill="url(#g)" filter="url(#glow)">
    <path d="M171 0 Q138 0 110 16 Q83 32 67 59 Q51 87 51 120 L51 148 L132 148 L132 120 Q132 104 143 92 Q155 81 171 81 L651 81 Q667 81 678 92 Q690 104 690 120 L690 281 Q690 297 678 308 Q667 319 651 319 L171 319 Q138 319 110 335 Q83 352 67 379 Q51 406 51 439 L51 600 Q51 633 67 660 Q83 688 110 704 Q138 720 171 720 L651 720 Q684 720 711 704 Q739 688 755 660 Q771 633 771 600 L771 572 L690 572 L690 600 Q690 616 678 627 Q667 639 651 639 L171 639 Q155 639 143 627 Q132 616 132 600 L132 439 Q132 423 143 412 Q155 401 171 401 L651 401 Q684 401 711 384 Q739 368 755 341 Q771 314 771 281 L771 120 Q771 87 755 59 Q739 32 711 16 Q684 0 651 0 L171 0 Z" transform="translate(36.00,70.0) scale(0.05104,-0.05104)"/>
    <path d="M66 0 L66 720 L148 720 L148 0 L66 0 Z" transform="translate(85.95,70.0) scale(0.05104,-0.05104)"/>
    <path d="M58 0 L58 720 L715 720 L715 639 L139 639 L139 401 L602 401 L602 319 L139 319 L139 0 L58 0 Z" transform="translate(104.87,70.0) scale(0.05104,-0.05104)"/>
    <path d="M340 0 L340 0 L340 639 L20 639 L20 720 L740 720 L740 639 L421 639 L421 0 L340 0 Z" transform="translate(149.77,70.0) scale(0.05104,-0.05104)"/>
  </g>
</svg>
